# xmcd CD database file
#
# Track frame offsets:
#	150
#	17593
#	51479
#	82583
#	118221
#	156321
#	188647
#	217321
#
# Disc length: 3217 seconds
#
# Revision: 0
# Processed by: cddbd v1.5.1PL0 Copyright (c) Steve Scherf et al.
# Submitted via: CDex 1.51
#
DISCID=6a0c8f08
DTITLE=MJR - 銀河鉄道999 JAZZ
DYEAR=2003
DGENRE=Jazz
TTITLE0=TAKING OFF
TTITLE1=銀河鉄道999
TTITLE2=勇者たち
TTITLE3=バルチザン・ミャウダー
TTITLE4=Sayonara
TTITLE5=Love Light
TTITLE6=The Galaxy Express 999
TTITLE7=青い地球
EXTD=YEAR: 2003
EXTT0=
EXTT1=
EXTT2=
EXTT3=
EXTT4=
EXTT5=
EXTT6=
EXTT7=
PLAYORDER=
